<svg width="14" height="15" viewBox="0 0 14 15" fill="none" xmlns="http://www.w3.org/2000/svg">
<path d="M0.875 3.40274H2.13889H12.25" stroke="#7F00E2" stroke-width="1.4" stroke-linecap="round" stroke-linejoin="round"/>
<path d="M4.03353 3.40278V2.13889C4.03353 1.80368 4.16669 1.48221 4.40371 1.24518C4.64074 1.00816 4.96221 0.875 5.29742 0.875H7.82519C8.1604 0.875 8.48187 1.00816 8.7189 1.24518C8.95592 1.48221 9.08908 1.80368 9.08908 2.13889V3.40278M10.9849 3.40278V12.25C10.9849 12.5852 10.8518 12.9067 10.6147 13.1437C10.3777 13.3807 10.0562 13.5139 9.72103 13.5139H3.40158C3.06638 13.5139 2.7449 13.3807 2.50788 13.1437C2.27085 12.9067 2.1377 12.5852 2.1377 12.25V3.40278H10.9849Z" stroke="#7F00E2" stroke-width="1.4" stroke-linecap="round" stroke-linejoin="round"/>
<path d="M5.2998 6.5625V10.3542" stroke="#7F00E2" stroke-width="1.4" stroke-linecap="round" stroke-linejoin="round"/>
<path d="M7.8252 6.5625V10.3542" stroke="#7F00E2" stroke-width="1.4" stroke-linecap="round" stroke-linejoin="round"/>
</svg>
