<svg width="17" height="22" viewBox="0 0 17 22" fill="none" xmlns="http://www.w3.org/2000/svg">
<path d="M4.03418 5.15479V3.1626C4.03418 2.29932 4.24723 1.64909 4.67334 1.21191C5.10498 0.77474 5.74967 0.556152 6.60742 0.556152H9.78662C10.2349 0.556152 10.6361 0.619792 10.9902 0.74707C11.3444 0.868815 11.6681 1.08187 11.9614 1.38623L16.1533 5.64453C16.4632 5.96549 16.679 6.30306 16.8008 6.65723C16.9225 7.01139 16.9834 7.44303 16.9834 7.95215V14.6924C16.9834 15.5557 16.7676 16.2059 16.3359 16.6431C15.9098 17.0802 15.2679 17.2988 14.4102 17.2988H12.7002V15.9624H14.3354C14.7671 15.9624 15.0936 15.8517 15.3149 15.6304C15.5363 15.4035 15.647 15.0825 15.647 14.6675V7.57031H11.7622C11.2863 7.57031 10.9294 7.4541 10.6914 7.22168C10.459 6.98926 10.3428 6.63232 10.3428 6.15088V1.89258H6.67383C6.24219 1.89258 5.91569 2.00602 5.69434 2.23291C5.47852 2.45426 5.37061 2.77246 5.37061 3.1875V5.15479H4.03418ZM11.5464 5.95166C11.5464 6.10107 11.5768 6.20898 11.6377 6.27539C11.7041 6.33626 11.8092 6.3667 11.9531 6.3667H15.2983L11.5464 2.54834V5.95166ZM0.00830078 18.8345V7.30469C0.00830078 6.44141 0.221354 5.79118 0.647461 5.354C1.0791 4.91683 1.7238 4.69824 2.58154 4.69824H5.51172C5.97656 4.69824 6.36117 4.74805 6.66553 4.84766C6.96989 4.94727 7.27979 5.16032 7.59521 5.48682L12.1689 10.1436C12.3903 10.3704 12.5563 10.5863 12.667 10.791C12.7832 10.9902 12.8607 11.2116 12.8994 11.4551C12.9382 11.6986 12.9575 11.9974 12.9575 12.3516V18.8345C12.9575 19.6978 12.7417 20.348 12.3101 20.7852C11.884 21.2223 11.242 21.4409 10.3843 21.4409H2.58154C1.7238 21.4409 1.0791 21.2223 0.647461 20.7852C0.221354 20.3535 0.00830078 19.7033 0.00830078 18.8345ZM1.34473 18.8096C1.34473 19.2246 1.45264 19.5428 1.66846 19.7642C1.88981 19.991 2.21354 20.1045 2.63965 20.1045H10.3179C10.744 20.1045 11.0677 19.991 11.2891 19.7642C11.5104 19.5428 11.6211 19.2246 11.6211 18.8096V12.418H6.93115C6.4165 12.418 6.02637 12.2879 5.76074 12.0278C5.50065 11.7677 5.37061 11.3748 5.37061 10.8491V6.03467H2.64795C2.21631 6.03467 1.88981 6.14811 1.66846 6.375C1.45264 6.59635 1.34473 6.91178 1.34473 7.32129V18.8096ZM7.08887 11.1646H11.3638L6.62402 6.3418V10.6997C6.62402 10.8657 6.65999 10.9847 6.73193 11.0566C6.80387 11.1286 6.92285 11.1646 7.08887 11.1646Z" fill="black"/>
</svg>
