<svg width="43" height="45" viewBox="0 0 43 45" fill="none" xmlns="http://www.w3.org/2000/svg">
<path fill-rule="evenodd" clip-rule="evenodd" d="M28.5338 41.6887C28.3213 43.1337 27.0038 44.2812 25.4313 44.2812H17.5688C15.9963 44.2812 14.6788 43.1337 14.4875 41.5825L13.9138 37.5662C13.34 37.2687 12.7875 36.95 12.235 36.5887L8.41001 38.1187C6.92251 38.6712 5.28626 38.055 4.56376 36.7375L0.67501 30.0012C-0.0687403 28.5987 0.25001 26.9412 1.44001 26.0062L4.69126 23.4775C4.67001 23.1587 4.64876 22.84 4.64876 22.5C4.64876 22.1812 4.67001 21.8412 4.69126 21.5225L1.46126 18.9937C0.20751 18.0375 -0.11124 16.3162 0.67501 14.9987L4.60626 8.22C5.32876 6.9025 6.96501 6.3075 8.41001 6.88125L12.2563 8.4325C12.8088 8.07125 13.3613 7.7525 13.9138 7.455L14.4875 3.39625C14.6788 1.90875 15.9963 0.739998 17.5475 0.739998H25.41C26.9825 0.739998 28.3 1.8875 28.4913 3.43875L29.065 7.455C29.6388 7.7525 30.1913 8.07125 30.7438 8.4325L34.5688 6.9025C36.0775 6.35 37.7138 6.96625 38.4363 8.28375L42.3463 15.0412C43.1113 16.4437 42.7713 18.1012 41.5813 19.0362L38.3513 21.565C38.3725 21.8837 38.3938 22.2025 38.3938 22.5425C38.3938 22.8825 38.3725 23.2012 38.3513 23.52L41.5813 26.0487C42.7713 27.005 43.1113 28.6625 42.3675 30.0012L38.415 36.8437C37.6925 38.1612 36.0563 38.7563 34.59 38.1825L30.765 36.6525C30.2125 37.0137 29.66 37.3325 29.1075 37.63L28.5338 41.6887ZM18.5675 40.0312H24.4325L25.2188 34.6125L26.345 34.145C27.28 33.7625 28.215 33.21 29.1925 32.4875L30.1488 31.765L35.2063 33.805L38.1388 28.705L33.825 25.3475L33.9738 24.1575L33.9804 24.1003C34.0418 23.5683 34.1013 23.0539 34.1013 22.5C34.1013 21.9262 34.0375 21.3737 33.9738 20.8425L33.825 19.6525L38.1388 16.295L35.185 11.195L30.1063 13.235L29.15 12.4912C28.2575 11.8112 27.3013 11.2587 26.3238 10.855L25.2188 10.3875L24.4325 4.96875H18.5675L17.7813 10.3875L16.655 10.8337C15.72 11.2375 14.785 11.7687 13.8075 12.5125L12.8513 13.2137L7.79376 11.195L4.84001 16.2737L9.15376 19.6312L9.00501 20.8212C8.94126 21.3737 8.87751 21.9475 8.87751 22.5C8.87751 23.0525 8.92001 23.6262 9.00501 24.1575L9.15376 25.3475L4.84001 28.705L7.77251 33.805L12.8513 31.765L13.8075 32.5087C14.7213 33.21 15.635 33.7412 16.6338 34.145L17.76 34.6125L18.5675 40.0312ZM28.9375 22.5C28.9375 26.6076 25.6076 29.9375 21.5 29.9375C17.3924 29.9375 14.0625 26.6076 14.0625 22.5C14.0625 18.3924 17.3924 15.0625 21.5 15.0625C25.6076 15.0625 28.9375 18.3924 28.9375 22.5Z" fill="black"/>
</svg>
